<svg xmlns="http://www.w3.org/2000/svg" viewBox="0 0 283.63 37.82"><defs><style>.cls-1{fill:#00739e;}.cls-2{isolation:isolate;}.cls-3{fill:#39b54a;}.cls-4{fill:#fff;}.cls-5{fill:#e14949;}.cls-6{fill:#f7941d;}</style></defs><title>blue</title><g id="Layer_2" data-name="Layer 2"><g id="Layer_1-2" data-name="Layer 1"><path class="cls-1" d="M71.93,28.46l-.49,0a11.72,11.72,0,0,1-8.52-3.37,11.25,11.25,0,0,1-3.45-8.39,11.25,11.25,0,0,1,3.45-8.39,12.47,12.47,0,0,1,17,0,11.23,11.23,0,0,1,3.45,8.38,11.53,11.53,0,0,1-7.52,11,3.37,3.37,0,0,0,2.8,1.46,5,5,0,0,0,2.42-.65,4.62,4.62,0,0,0,1.81-1.69l2.18,3a8.69,8.69,0,0,1-6.47,3,7.57,7.57,0,0,1-4-1.17A6.32,6.32,0,0,1,71.93,28.46Zm5.22-17.57a8,8,0,0,0-11.42,0,8.1,8.1,0,0,0-2.33,5.84,8.09,8.09,0,0,0,2.33,5.84,8,8,0,0,0,11.42,0,8.09,8.09,0,0,0,2.33-5.84A8.1,8.1,0,0,0,77.15,10.89Z"/><path class="cls-1" d="M96,23.06a5.82,5.82,0,0,0,8.46,0A7.35,7.35,0,0,0,106,18.11V5.52h3.84V18.27q0,4.91-2.7,7.56a10.38,10.38,0,0,1-13.86,0q-2.7-2.65-2.7-7.56V5.52h3.84V18.11A7.35,7.35,0,0,0,96,23.06Z"/><g class="cls-2"><path class="cls-1" d="M121.12,23.09l-2.28,5.17h-4.1l10-22.74h4.1l10,22.74h-4.1l-2.28-5.17Zm9.82-3.55-4.13-9.37-4.13,9.37Z"/><path class="cls-1" d="M161.82,8.5a10.61,10.61,0,0,1,3.29,8.28,11.15,11.15,0,0,1-3.19,8.39q-3.19,3.09-9.76,3.09h-7.55V5.52h7.81Q158.54,5.52,161.82,8.5Zm-.59,8.38q0-7.81-8.95-7.81h-3.84V24.65h4.26a9.18,9.18,0,0,0,6.33-2A7.4,7.4,0,0,0,161.24,16.87Z"/></g><g class="cls-2"><path class="cls-1" d="M181.64,28.26h-3.9v-9L169.28,5.52h4.2l6.21,10.35L185.9,5.52h4.2l-8.46,13.76Z"/></g><g class="cls-2"><path class="cls-1" d="M202.18,8.51a5,5,0,0,0-2.75.68,2.28,2.28,0,0,0-1.07,2.07,2.4,2.4,0,0,0,1.07,2.11A16.22,16.22,0,0,0,204,15a12.57,12.57,0,0,1,5.27,2.37A5.62,5.62,0,0,1,211,21.84a6,6,0,0,1-2.24,4.83,9,9,0,0,1-5.89,1.85,13.83,13.83,0,0,1-9.47-3.68l2.41-2.9a10.84,10.84,0,0,0,7.16,3,4.89,4.89,0,0,0,2.94-.8A2.5,2.5,0,0,0,207,22a2.37,2.37,0,0,0-1-2,10.79,10.79,0,0,0-3.53-1.33,31.56,31.56,0,0,1-3.81-1.11,8.58,8.58,0,0,1-2.31-1.32,5.5,5.5,0,0,1-2-4.68,5.7,5.7,0,0,1,2.29-4.86A9.24,9.24,0,0,1,202.33,5a13.61,13.61,0,0,1,4.33.72,11.31,11.31,0,0,1,3.71,2l-2,2.9a7.75,7.75,0,0,0-2.73-1.5A10.53,10.53,0,0,0,202.18,8.51Z"/><path class="cls-1" d="M227,9V28.26h-3.84V9h-6.9V5.52h17.63V9Z"/><path class="cls-1" d="M256.56,5.52V9.13H244.43v6h10.9v3.42h-10.9v6.08H257v3.61H240.59V5.52Z"/><path class="cls-1" d="M282.59,12.91q0,5.63-4.91,7.09l6,8.26h-4.88l-5.43-7.65h-5v7.65h-3.84V5.52h8.46q5.2,0,7.45,1.76T282.59,12.91Zm-5.11,3.22a4.05,4.05,0,0,0,1.17-3.24,3.46,3.46,0,0,0-1.2-3.06A8,8,0,0,0,273.15,9h-4.88v8.13h4.78Q276.31,17.13,277.48,16.13Z"/></g><path class="cls-3" d="M35.6,12.4A12.42,12.42,0,0,1,23.2,24.8h0A12.4,12.4,0,0,1,10.8,12.4,12.4,12.4,0,0,1,23.2,0h0A12.44,12.44,0,0,1,35.6,12.4Z"/><path class="cls-4" d="M32.91,9.37a9.36,9.36,0,0,0-.34-.93h0a10.34,10.34,0,0,0-2.9-3.88h0a10.53,10.53,0,0,0-1.19-.85,10.33,10.33,0,0,0-3.22-1.27,10.46,10.46,0,0,0-2.05-.2h-.53c-.34,0-.69.06-1,.11a9.93,9.93,0,0,0-1,.2A11.21,11.21,0,0,0,19.24,3,10.31,10.31,0,0,0,16,5.21c-.23.23-.45.47-.65.72h0a10.54,10.54,0,0,0-.85,1.19l-.25.43c-.15.29-.29.58-.43.89s-.24.61-.34.94a10.2,10.2,0,0,0,0,6.05,9.46,9.46,0,0,0,.34.94c.13.3.27.6.43.89l.25.43a10.54,10.54,0,0,0,.85,1.19h0c.2.25.42.49.65.72a10.09,10.09,0,0,0,3.23,2.18,11.2,11.2,0,0,0,1.42.48,8.59,8.59,0,0,0,1,.2c.34,0,.68.08,1,.11h.53a10.46,10.46,0,0,0,2.05-.2,10,10,0,0,0,3.22-1.27,10.54,10.54,0,0,0,1.19-.85h0A11.13,11.13,0,0,0,31,18.88h0a11.33,11.33,0,0,0,.85-1.19,10.12,10.12,0,0,0,1.47-5.27h0A10.15,10.15,0,0,0,32.91,9.37ZM23.2,4.89a.71.71,0,0,1,0-1.41,9,9,0,0,1,7.72,4.45.67.67,0,0,1,.07.54l0,.07a.57.57,0,0,1-.15.23.52.52,0,0,1-.15.12.64.64,0,0,1-.34.09.7.7,0,0,1-.6-.35A7.55,7.55,0,0,0,23.2,4.89Zm8.91,7.53a.7.7,0,0,1-.7.69h0a.7.7,0,0,1-.7-.71,7.85,7.85,0,0,0-.22-1.76.14.14,0,0,1,0-.07.64.64,0,0,1,.08-.42.76.76,0,0,1,.14-.18.45.45,0,0,1,.14-.1l.06,0,.11,0h0a.68.68,0,0,1,.53.08.73.73,0,0,1,.32.44,9,9,0,0,1,.25,2.11Z"/><path class="cls-5" d="M46.54,18.35a12.42,12.42,0,0,1-12.4,12.4h0A12.4,12.4,0,0,1,25.38,9.58a12.31,12.31,0,0,1,8.77-3.63h0A12.44,12.44,0,0,1,46.54,18.35Z"/><path class="cls-4" d="M43.85,15.32a9.36,9.36,0,0,0-.34-.93h0a10.34,10.34,0,0,0-2.9-3.88h0a10.53,10.53,0,0,0-1.19-.85,10.33,10.33,0,0,0-3.22-1.27,10.46,10.46,0,0,0-2.05-.2h-.53c-.34,0-.69.06-1,.11a9.93,9.93,0,0,0-1,.2A11.21,11.21,0,0,0,30.18,9a10.31,10.31,0,0,0-3.23,2.18c-.23.23-.45.47-.65.72h0a10.54,10.54,0,0,0-.85,1.19l-.25.43c-.15.29-.29.58-.43.89s-.24.61-.34.94a10.2,10.2,0,0,0,0,6.05,9.46,9.46,0,0,0,.34.94c.13.3.27.6.43.89l.25.43a10.54,10.54,0,0,0,.85,1.19h0c.2.25.42.49.65.72a10.09,10.09,0,0,0,3.23,2.18,11.2,11.2,0,0,0,1.42.48,8.59,8.59,0,0,0,1,.2c.34,0,.68.08,1,.11h.53a10.46,10.46,0,0,0,2.05-.2A10,10,0,0,0,39.41,27a10.54,10.54,0,0,0,1.19-.85h0A11.13,11.13,0,0,0,42,24.82h0a11.33,11.33,0,0,0,.85-1.19,10.12,10.12,0,0,0,1.47-5.27h0A10.15,10.15,0,0,0,43.85,15.32Zm-9.71-4.49a.71.71,0,0,1,0-1.41,9,9,0,0,1,7.72,4.45.67.67,0,0,1,.07.54l0,.07a.57.57,0,0,1-.15.23.52.52,0,0,1-.15.12.64.64,0,0,1-.34.09.7.7,0,0,1-.6-.35A7.55,7.55,0,0,0,34.14,10.83Zm8.91,7.53a.7.7,0,0,1-.7.69h0a.7.7,0,0,1-.7-.71,7.85,7.85,0,0,0-.22-1.76.14.14,0,0,1,0-.07.64.64,0,0,1,.08-.42.76.76,0,0,1,.14-.18.45.45,0,0,1,.14-.1l.06,0,.11,0h0a.68.68,0,0,1,.53.08.73.73,0,0,1,.32.44,9,9,0,0,1,.25,2.11Z"/><path class="cls-6" d="M24.8,18.35a12.42,12.42,0,0,1-12.4,12.4h0A12.4,12.4,0,0,1,3.64,9.58,12.31,12.31,0,0,1,12.4,5.95h0A12.44,12.44,0,0,1,24.8,18.35Z"/><path class="cls-4" d="M22.11,15.32a9.36,9.36,0,0,0-.34-.93h0a10.34,10.34,0,0,0-2.9-3.88h0a10.53,10.53,0,0,0-1.19-.85,10.33,10.33,0,0,0-3.22-1.27,10.46,10.46,0,0,0-2.05-.2h-.53c-.34,0-.69.06-1,.11a9.93,9.93,0,0,0-1,.2A11.21,11.21,0,0,0,8.44,9a10.31,10.31,0,0,0-3.23,2.18c-.23.23-.45.47-.65.72h0a10.54,10.54,0,0,0-.85,1.19l-.25.43c-.15.29-.29.58-.43.89s-.24.61-.34.94a10.2,10.2,0,0,0,0,6.05,9.46,9.46,0,0,0,.34.94c.13.3.27.6.43.89l.25.43a10.54,10.54,0,0,0,.85,1.19h0c.2.25.42.49.65.72a10.09,10.09,0,0,0,3.23,2.18,11.2,11.2,0,0,0,1.42.48,8.59,8.59,0,0,0,1,.2c.34,0,.68.08,1,.11h.53a10.46,10.46,0,0,0,2.05-.2A10,10,0,0,0,17.67,27a10.54,10.54,0,0,0,1.19-.85h0a11.13,11.13,0,0,0,1.38-1.37h0a11.33,11.33,0,0,0,.85-1.19,10.12,10.12,0,0,0,1.47-5.27h0A10.15,10.15,0,0,0,22.11,15.32ZM12.4,10.83a.71.71,0,0,1,0-1.41,9,9,0,0,1,7.72,4.45.67.67,0,0,1,.07.54l0,.07a.57.57,0,0,1-.15.23.52.52,0,0,1-.15.12.64.64,0,0,1-.34.09.7.7,0,0,1-.6-.35A7.55,7.55,0,0,0,12.4,10.83Zm8.91,7.53a.7.7,0,0,1-.7.69h0a.7.7,0,0,1-.7-.71,7.85,7.85,0,0,0-.22-1.76.14.14,0,0,1,0-.07.64.64,0,0,1,.08-.42.76.76,0,0,1,.14-.18.45.45,0,0,1,.14-.1l.06,0,.11,0h0a.68.68,0,0,1,.53.08.73.73,0,0,1,.32.44,9,9,0,0,1,.25,2.11Z"/><path class="cls-1" d="M35.6,25.41a12.42,12.42,0,0,1-12.4,12.4h0a12.4,12.4,0,0,1,0-24.8h0A12.44,12.44,0,0,1,35.6,25.41Z"/><path class="cls-4" d="M32.91,22.39a9.36,9.36,0,0,0-.34-.93h0a10.34,10.34,0,0,0-2.9-3.88h0a10.53,10.53,0,0,0-1.19-.85,10.33,10.33,0,0,0-3.22-1.27,10.46,10.46,0,0,0-2.05-.2h-.53c-.34,0-.69.06-1,.11a9.93,9.93,0,0,0-1,.2,11.21,11.21,0,0,0-1.42.48A10.31,10.31,0,0,0,16,18.22c-.23.23-.45.47-.65.72h0a10.54,10.54,0,0,0-.85,1.19l-.25.43c-.15.29-.29.58-.43.89s-.24.61-.34.94a10.2,10.2,0,0,0,0,6.05,9.46,9.46,0,0,0,.34.94c.13.3.27.6.43.89l.25.43a10.54,10.54,0,0,0,.85,1.19h0c.2.25.42.49.65.72a10.09,10.09,0,0,0,3.23,2.18,11.2,11.2,0,0,0,1.42.48,8.59,8.59,0,0,0,1,.2c.34,0,.68.08,1,.11h.53a10.46,10.46,0,0,0,2.05-.2,10,10,0,0,0,3.22-1.27,10.54,10.54,0,0,0,1.19-.85h0A11.13,11.13,0,0,0,31,31.89h0a11.33,11.33,0,0,0,.85-1.19,10.12,10.12,0,0,0,1.47-5.27h0A10.15,10.15,0,0,0,32.91,22.39ZM23.2,17.9a.71.71,0,0,1,0-1.41,9,9,0,0,1,7.72,4.45.67.67,0,0,1,.07.54l0,.07a.57.57,0,0,1-.15.23.52.52,0,0,1-.15.12.64.64,0,0,1-.34.09.7.7,0,0,1-.6-.35A7.55,7.55,0,0,0,23.2,17.9Zm8.91,7.53a.7.7,0,0,1-.7.69h0a.7.7,0,0,1-.7-.71,7.85,7.85,0,0,0-.22-1.76.14.14,0,0,1,0-.07.64.64,0,0,1,.08-.42A.76.76,0,0,1,30.7,23a.45.45,0,0,1,.14-.1l.06,0,.11,0h0a.68.68,0,0,1,.53.08.73.73,0,0,1,.32.44,9,9,0,0,1,.25,2.11Z"/></g></g></svg>